This is a stereoscopic 3D rip of
Beauty and the Beast, for new
3D TVs or computers with Nvidia
3D Vision. Tested with
Stereoscopic Player. Enjoy!
Title: Beauty and the Beast
(1991)
Rated: G
Runtime: 84 Minutes
Genre: Animation | Family |
Fantasy
Description:
Belle is a girl who is dissatisfied
with life in a small provincial
French town, constantly trying to
fend off the misplaced
"affections" of conceited Gaston.
The Beast is a prince who was
placed under a spell because he
could not love. A wrong turn
taken by Maurice, Belle's father,
causes the two to meet.
-From IMDB Page: http://
www.imdb.com/title/tt0101414/
General
Unique ID :
191914541650305499048770940708682815119
(0x90616570D2453ED4B298294CE18D568F)
Complete name :
[Filepath]\Beauty And The Beast
3D.mkv
Format : Matroska
File size : 6.82 GiB
Duration : 1h 24mn
Overall bit rate : 11.5 Mbps
Movie name : Beauty And The
Beast - 3D4U -
EX-3DBlurayIsoTeam
Encoded date : UTC 2011-09-20
00:48:25
Writing application : mkvmerge
v4.9.1 ('Ich will') built on Jul 11
2011 23:53:15
Writing library : libebml v1.2.1 +
libmatroska v1.1.1
Video
ID : 1
Format : AVC
Format/Info : Advanced Video
Codec
Format profile : High@L4.1
Format settings, CABAC : Yes
Format settings, ReFrames : 2
frames
Codec ID : V_MPEG4/ISO/AVC
Duration : 1h 24mn
Bit rate : 9 758 Kbps
Width : 1 920 pixels
Height : 1 070 pixels
Display aspect ratio : 16:9
Frame rate : 23.976 fps
Color space : YUV
Chroma subsampling : 4:2:0
Bit depth : 8 bits
Scan type : Progressive
Bits/(Pixel*Frame) : 0.198
Stream size : 5.79 GiB (85%)
Writing library : x264 core
Language : English
Color primaries : BT.709-5,
BT.1361, IEC 61966-2-4, SMPTE
RP177
Transfer characteristics :
BT.709-5, BT.1361
Matrix coefficients : BT.709-5,
BT.1361, IEC 61966-2-4 709,
SMPTE RP177
Audio
ID : 2
Format : DTS
Format/Info : Digital Theater
Systems
Codec ID : A_DTS
Duration : 1h 24mn
Bit rate mode : Constant
Bit rate : 1 510 Kbps
Channel(s) : 6 channels
Channel positions : Front: L C R,
Side: L R, LFE
Sampling rate : 48.0 KHz
Bit depth : 24 bits
Compression mode : Lossy
Stream size : 917 MiB (13%)
Language : English